<svg width="956" height="315" viewBox="0 0 956 315" fill="none" xmlns="http://www.w3.org/2000/svg">
<path d="M177.958 245.172L21.0641 185.006L21.1973 142.107L178.462 82.8131L178.334 124.063L36.6048 175.15L36.6765 152.05L178.086 203.922L177.958 245.172ZM186.868 312.517L296.733 1.9611L342.602 2.08846L232.738 312.645L186.868 312.517ZM412.318 280.143L412.9 92.704L338.98 92.4988L339.116 48.939L540.415 49.4979L540.28 93.0577L466.36 92.8524L465.778 280.292L412.318 280.143ZM642.738 284.743C624.258 284.692 606.555 282.222 589.631 277.335C572.706 272.228 559.087 265.701 548.771 257.752L567.046 217.542C576.924 224.61 588.566 230.472 601.972 235.13C615.598 239.567 629.341 241.806 643.201 241.844C653.761 241.873 662.234 240.907 668.62 238.945C675.227 236.763 680.076 233.806 683.168 230.075C686.259 226.344 687.813 222.058 687.828 217.218C687.847 211.058 685.442 206.211 680.613 202.678C675.784 198.924 669.414 195.937 661.501 193.715C653.588 191.273 644.795 189.048 635.121 187.041C625.668 184.815 616.106 182.149 606.436 179.042C596.985 175.935 588.308 171.951 580.403 167.089C572.498 162.227 566.028 155.829 560.992 147.895C556.177 139.962 553.788 129.835 553.827 117.515C553.868 104.315 557.425 92.3353 564.498 81.5749C571.792 70.5951 582.599 61.935 596.919 55.5948C611.46 49.0351 629.62 45.7855 651.4 45.846C665.92 45.8863 680.214 47.686 694.283 51.2451C708.353 54.5842 720.767 59.6787 731.526 66.5286L714.9 107.073C704.139 100.883 693.373 96.3428 682.602 93.4528C671.832 90.3429 661.276 88.7736 650.936 88.7449C640.596 88.7162 632.123 89.9027 625.515 92.3043C618.908 94.706 614.168 97.8828 611.296 101.835C608.424 105.567 606.98 109.963 606.965 115.023C606.946 120.963 609.351 125.81 614.179 129.563C619.009 133.096 625.38 135.974 633.293 138.196C641.206 140.418 649.889 142.642 659.342 144.868C669.015 147.095 678.577 149.652 688.029 152.538C697.7 155.425 706.488 159.299 714.393 164.161C722.297 169.023 728.658 175.421 733.473 183.354C738.508 191.288 741.007 201.305 740.97 213.405C740.929 226.385 737.263 238.255 729.969 249.015C722.676 259.775 711.759 268.434 697.218 274.994C682.898 281.554 664.738 284.804 642.738 284.743ZM770.466 246.817L770.594 205.568L912.323 154.481L912.251 177.581L770.842 125.708L770.97 84.4582L927.864 144.624L927.73 187.524L770.466 246.817Z" fill="#00A0FF"/>
</svg>
