<svg xmlns="http://www.w3.org/2000/svg" fill="none" viewBox="0 0 811 249">
  <path fill="#00A0FF" d="M178.419 208.2 21.5156 148.011l.1264-42.9 157.255-59.2701-.121 41.2498L37.0547 138.156l.0681-23.099L178.54 166.95l-.121 41.25Zm95.147 34.599.553-187.4396-73.92-.2162.128-43.5598 201.299.5887-.128 43.5599-73.92-.2162-.552 187.4392-53.46-.156Zm230.42 4.634c-18.48-.055-36.182-2.526-53.108-7.416-16.925-5.109-30.546-11.639-40.863-19.589l18.269-40.207c9.879 7.069 21.522 12.933 34.928 17.592 13.627 4.44 27.371 6.68 41.231 6.721 10.56.031 19.033-.935 25.418-2.896 6.607-2.181 11.456-5.137 14.547-8.867 3.091-3.731 4.643-8.017 4.657-12.857.019-6.16-2.387-11.007-7.217-14.541-4.829-3.754-11.2-6.743-19.113-8.966-7.913-2.443-16.707-4.669-26.381-6.677-9.453-2.228-19.015-4.896-28.686-8.004-9.451-3.108-18.13-7.093-26.035-11.956-7.906-4.863-14.377-11.262-19.414-19.197-4.816-7.934-7.206-18.0614-7.17-30.3813.039-13.1999 3.594-25.1796 10.666-35.939 7.292-10.9787 18.098-19.6371 32.417-25.9753 14.539-6.5575 32.699-9.80437 54.478-9.74068 14.52.04247 28.815 1.84428 42.885 5.40548 14.07 3.3411 26.485 8.4375 37.245 15.289l-16.62 40.5415c-10.762-6.1915-21.528-10.733-32.3-13.6245-10.771-3.1115-21.326-4.6824-31.666-4.7126-10.34-.0303-18.813 1.155-25.421 3.5556-6.607 2.4007-11.346 5.5769-14.218 9.5285-2.871 3.7316-4.314 8.1274-4.329 13.1874-.017 5.94 2.389 10.787 7.218 14.5412 4.829 3.5341 11.201 6.4128 19.114 8.6357 7.914 2.223 16.597 4.449 26.051 6.676 9.673 2.229 19.236 4.787 28.687 7.674 9.672 2.889 18.46 6.764 26.366 11.628 7.906 4.863 14.267 11.261 19.083 19.195 5.037 7.935 7.538 17.953 7.502 30.052-.038 12.98-3.703 24.85-10.995 35.608-7.292 10.759-18.207 19.417-32.747 25.975-14.319 6.558-32.479 9.805-54.479 9.741Zm127.722-37.907.122-41.25 141.721-51.066-.068 23.1-141.418-51.8936.122-41.2498L789.09 107.356l-.127 42.9-157.255 59.27Z"/>
</svg>
